<?xml version="1.0" encoding="utf-8"?>
<svg version="1.1" xmlns="http://www.w3.org/2000/svg" xmlns:xlink="http://www.w3.org/1999/xlink" x="0px" y="0px"
	 viewBox="0 0 169.1 169.1" style="enable-background:new 0 0 169.1 169.1;" xml:space="preserve">
<path d="M84.5,41C60.5,41,41,60.5,41,84.5c0,24,19.5,43.6,43.6,43.6s43.6-19.5,43.6-43.6C128.1,60.5,108.6,41,84.5,41z
	 M84.5,113.1c-15.7,0-28.6-12.8-28.6-28.6C56,68.8,68.8,56,84.5,56s28.6,12.8,28.6,28.6C113.1,100.3,100.3,113.1,84.5,113.1z
	 M137.7,31.5c2.1,2,3.2,4.9,3.2,7.8c0,2.9-1.2,5.7-3.2,7.8c-2,2-4.9,3.2-7.8,3.2c-2.9,0-5.7-1.2-7.8-3.2c-2-2.1-3.2-4.9-3.2-7.8
	c0-2.9,1.2-5.7,3.2-7.8c2-2.1,4.9-3.2,7.8-3.2C132.8,28.3,135.7,29.4,137.7,31.5z M122.4,0H46.7C20.9,0,0,20.9,0,46.7v75.8
	c0,25.7,20.9,46.7,46.7,46.7h75.8c25.7,0,46.7-20.9,46.7-46.7V46.7C169.1,20.9,148.1,0,122.4,0z M122.4,154.1H46.7
	c-17.5,0-31.7-14.2-31.7-31.7V46.7C15,29.2,29.2,15,46.7,15h75.8c17.5,0,31.7,14.2,31.7,31.7v75.8h0
	C154.1,139.9,139.9,154.1,122.4,154.1z"/>
</svg>
