<?xml version="1.0" encoding="utf-8"?>
<svg version="1.1" xmlns="http://www.w3.org/2000/svg" xmlns:xlink="http://www.w3.org/1999/xlink" x="0px" y="0px"
	 viewBox="0 0 169.1 169.1" style="enable-background:new 0 0 169.1 169.1;" xml:space="preserve">
	<path d="M157.7,42.1c-7.6-13-17.8-23.2-30.8-30.8C114,3.8,99.9,0,84.5,0C69.2,0,55.1,3.8,42.1,11.3c-13,7.6-23.2,17.8-30.8,30.8
		C3.8,55.1,0,69.2,0,84.5c0,17.1,4.7,32.6,14,46.6c9.3,13.9,21.5,24.3,36.7,30.9c-0.3-7.9,0.2-14.3,1.4-19.5l10.9-46
		c-1.8-3.6-2.8-8.1-2.8-13.4c0-6.2,1.6-11.4,4.7-15.6c3.2-4.2,7-6.3,11.6-6.3c3.7,0,6.5,1.2,8.5,3.6c2,2.4,3,5.5,3,9.1
		c0,2.3-0.4,5-1.3,8.3c-0.8,3.3-1.9,7-3.3,11.3c-1.4,4.3-2.3,7.7-2.9,10.3c-1,4.5-0.2,8.3,2.5,11.5c2.7,3.2,6.3,4.8,10.8,4.8
		c7.9,0,14.3-4.4,19.3-13.1c5-8.7,7.5-19.3,7.5-31.8c0-9.6-3.1-17.4-9.3-23.4c-6.2-6-14.8-9-25.9-9c-12.4,0-22.4,4-30.1,11.9
		c-7.7,8-11.5,17.5-11.5,28.6c0,6.6,1.9,12.1,5.6,16.6c1.2,1.5,1.7,3,1.2,4.7c-0.1,0.4-0.4,1.5-0.9,3.3c-0.4,1.8-0.7,2.9-0.9,3.4
		c-0.6,2.3-2,3.1-4.2,2.2c-5.6-2.3-9.9-6.4-12.9-12.2c-2.9-5.8-4.4-12.5-4.4-20.1c0-4.9,0.8-9.8,2.4-14.7c1.6-4.9,4-9.7,7.4-14.3
		c3.3-4.6,7.3-8.6,12-12.2c4.7-3.5,10.3-6.3,17-8.5c6.7-2.1,13.9-3.2,21.6-3.2c10.4,0,19.8,2.3,28.1,6.9c8.3,4.6,14.6,10.6,19,17.9
		c4.4,7.3,6.5,15.2,6.5,23.6c0,11-1.9,20.9-5.7,29.7c-3.8,8.8-9.2,15.7-16.2,20.7c-7,5-14.9,7.5-23.8,7.5c-4.5,0-8.7-1-12.5-3.1
		c-3.9-2.1-6.6-4.6-8-7.4c-3.3,13-5.3,20.7-5.9,23.2c-1.4,5.2-4.3,11.2-8.6,18.1c7.9,2.3,15.9,3.5,24,3.5c15.3,0,29.5-3.8,42.4-11.3
		c13-7.6,23.2-17.8,30.8-30.8c7.6-13,11.3-27.1,11.3-42.4C169.1,69.2,165.3,55,157.7,42.1z"/>
</svg>
