<svg width="44" height="21" xmlns="http://www.w3.org/2000/svg" xmlns:xlink="http://www.w3.org/1999/xlink"><defs><path id="a" d="M0 0h44v21H0z"/></defs><g fill="none" fill-rule="evenodd"><mask id="b" fill="#fff"><use xlink:href="#a"/></mask><path d="M10.6 21h2.019L6.989 7.305H5.63L0 21h2.02l1.415-3.523h5.728L10.599 21zM6.307 10.533l2.098 5.087H4.212l2.096-5.087zM19.38 7.044c-.324.47-.88.782-1.515.782-.944 0-1.657-.73-1.657-1.722 0-.915.636-1.737 1.618-1.737.649 0 1.205.314 1.554.784v1.893zm.063 2.214h1.619V0H19.38v3.872c-.052-.507-.636-1.068-1.773-1.068-1.709 0-3.08 1.434-3.08 3.298 0 .862.31 1.645.8 2.219a3.152 3.152 0 0 0 2.37 1.07c1.128 0 1.746-.627 1.746-1.109v.976zm7.948-1.965c-.297.325-.868.73-1.58.73-.89 0-1.603-.614-1.696-1.503h4.35a2.89 2.89 0 0 0 .038-.482c0-1.762-1.228-3.234-2.964-3.234-1.861 0-3.054 1.537-3.054 3.298 0 1.985 1.412 3.288 3.288 3.288.972 0 1.965-.406 2.576-1.133l-.958-.964zm-3.197-2.01c.077-.574.646-1.111 1.345-1.111.687 0 1.192.55 1.243 1.11h-2.588zm10.49 3.878h3.687V21h1.938V9.161H44V7.305h-9.316v1.856z" fill="#000" mask="url(#b)"/></g></svg>