<?xml version="1.0" encoding="utf-8"?>
<!-- Generator: Adobe Illustrator 24.1.1, SVG Export Plug-In . SVG Version: 6.00 Build 0)  -->
<svg version="1.1" id="Layer_1" xmlns="http://www.w3.org/2000/svg" xmlns:xlink="http://www.w3.org/1999/xlink" x="0px" y="0px"
	 viewBox="0 0 60 60" style="enable-background:new 0 0 60 60;" xml:space="preserve">
<path d="M56,56l-4.1-38.3c-0.1-1.1-1.1-2-2.2-2H43v-1.3c0-7.1-5.8-12.9-12.9-12.9c-7.1,0-12.9,5.8-12.9,12.9v1.3h-6.8
	c-1.1,0-2.1,0.9-2.2,2L4.1,55.9c-0.1,0.6,0,1.2,0.5,1.8c0.4,0.5,1,0.8,1.7,0.8h47.6c0.7,0,1.3-0.3,1.7-0.8
	C55.9,57.2,56.1,56.6,56,56z M21.7,15.7v-1.3c0-4.7,3.8-8.4,8.4-8.4s8.4,3.8,8.4,8.4v1.3H21.7z M8.8,54l3.6-33.8h35.5L51.5,54H8.8z"
	/>
</svg>
