<?xml version="1.0" encoding="utf-8"?>
<!-- Generator: Adobe Illustrator 24.1.1, SVG Export Plug-In . SVG Version: 6.00 Build 0)  -->
<svg version="1.1" id="Layer_1" xmlns="http://www.w3.org/2000/svg" xmlns:xlink="http://www.w3.org/1999/xlink" x="0px" y="0px"
	 viewBox="0 0 464 464" style="enable-background:new 0 0 464 464;" xml:space="preserve">
<style type="text/css">
	.st0{fill:#020202;}
</style>
<path class="st0" d="M451,416.2L333.3,298.4c24.1-31.8,37.4-70.8,37.4-110.3C370.6,87.5,288.7,5.7,188.2,5.7
	C87.6,5.7,5.7,87.6,5.7,188.2s81.9,182.5,182.5,182.5c39.5,0,78.6-13.3,110.3-37.4L416.2,451c4.7,4.7,10.9,7.3,17.5,7.3
	c6.6,0,12.8-2.6,17.5-7.3c4.7-4.7,7.2-10.9,7.2-17.5C458.3,427,455.7,420.8,451,416.2z M321.3,188.2c0,73.4-59.7,133.2-133.2,133.2
	S55,261.6,55,188.2C55,114.8,114.8,55,188.2,55S321.3,114.8,321.3,188.2z"/>
</svg>
