<?xml version="1.0" encoding="utf-8"?>
<!-- Generator: Adobe Illustrator 24.1.1, SVG Export Plug-In . SVG Version: 6.00 Build 0)  -->
<svg version="1.1" id="Layer_1" xmlns="http://www.w3.org/2000/svg" xmlns:xlink="http://www.w3.org/1999/xlink" x="0px" y="0px"
	 viewBox="0 0 464 464" style="enable-background:new 0 0 464 464;" xml:space="preserve">
<path d="M231.9,2.2C105.3,2.2,2.3,105.3,2.3,231.9c0,52.8,18.4,104.4,52,145.4c0.3,0.4,0.6,0.9,0.9,1.3c23.1,27.8,53,50.1,86.4,64.5
	c0.4,0.2,1.1,0.5,1.8,0.8c2,0.8,4,1.6,5.9,2.4l1.9,0.7c0.3,0.1,0.6,0.2,1,0.4c0.6,0.3,1.4,0.6,2.3,0.9c2.2,0.8,4.4,1.5,7.1,2.4
	l4.3,1.4c2.2,0.7,4.4,1.3,6.4,1.9l0.2,0.1c0.9,0.2,1.8,0.4,2.6,0.7c0.9,0.2,1.8,0.5,2.8,0.7c1.9,0.5,3.8,0.9,5.8,1.4
	c2.2,0.5,4.4,0.9,6.5,1.3l0.1,0c0.7,0.1,1.3,0.2,2,0.4c1,0.2,2,0.4,3.1,0.6c1.2,0.2,2.5,0.4,3.7,0.5c1.1,0.1,2.2,0.3,3.2,0.5l0.3,0
	c0.8,0.1,1.6,0.2,2.4,0.3l2.3,0.3c2.8,0.3,5.6,0.5,8.3,0.7l3.8,0.3l0.2,0c3.7,0.2,7.9,0.4,12.3,0.4c4.7,0,8.7-0.1,12.5-0.4l3.7-0.3
	c2.7-0.2,5.5-0.4,8.3-0.7l2.3-0.3c0.8-0.1,1.6-0.2,2.3-0.3l0.4,0c2.2-0.3,4.7-0.6,7.2-1.1l0.5-0.1c1.4-0.2,3.1-0.5,4.7-0.9
	c2-0.3,4.1-0.7,6.3-1.2c2-0.4,4-0.9,5.9-1.4c0.9-0.2,1.8-0.5,2.8-0.7c0.9-0.2,1.7-0.4,2.6-0.7l0.2-0.1c2.1-0.6,4.2-1.2,6.4-1.8
	l4.5-1.4c2.4-0.8,4.8-1.5,7.2-2.4c1-0.4,2.1-0.8,3.3-1.3c3.2-1.2,5.7-2.2,8-3.2l1.1-0.5c33.5-14.3,63.5-36.7,86.7-64.7
	c0.3-0.4,0.6-0.8,0.9-1.2c33.5-41,52-92.6,52-145.4C461.6,105.3,358.5,2.2,231.9,2.2z M170,416.9c-1.3-0.4-2.5-0.8-3.6-1.2l-3.2-1.2
	c-2.3-0.9-4.5-1.7-6.7-2.7l-0.3-0.1c-0.5-0.2-1.1-0.5-1.9-0.7l-7-3.1c-0.3-0.1-0.5-0.3-0.8-0.4c-22.2-10.8-42.6-26.1-59.4-44.6
	c14-44.8,49.2-81.6,93.6-97.5c0.4,0.2,0.9,0.5,1.5,0.8c2.5,1.3,4.9,2.4,7.1,3.4l0.1,0.1c1,0.4,2,0.8,2.9,1.2
	c0.8,0.3,1.6,0.6,2.4,0.9l0.7,0.3l0.4,0.1c0.2,0.1,0.5,0.2,0.9,0.3c23.3,8,47.1,8,69.7,0.1c0.3-0.1,0.6-0.2,0.9-0.3l0.5-0.2
	c1.9-0.7,4-1.4,6.2-2.4c2.3-1,4.7-2.1,7.3-3.5l0.2-0.1c0.2-0.1,0.4-0.3,0.7-0.4c0.1-0.1,0.2-0.1,0.3-0.2
	c44.4,15.9,79.7,52.6,93.7,97.5c-16.9,18.6-36.9,33.6-59.7,44.6l-0.9,0.4c-2.3,1.1-4.6,2.1-6.9,3.1l-0.7,0.3c-0.1,0-0.2,0.1-0.3,0.1
	l-0.4,0.1l-0.6,0.2c-2.2,0.9-4.5,1.8-6.7,2.7l-2.9,1.1c-2,0.7-4,1.4-6.2,2.1c-1,0.3-2,0.6-3.4,1l-5.9,1.7c-1.4,0.4-2.9,0.7-4.4,1.1
	c-0.9,0.2-1.9,0.4-2.8,0.6c-0.8,0.2-1.5,0.4-2.3,0.5c-1.9,0.4-3.8,0.7-5.5,1.1l-4.5,0.8c-1.9,0.3-3.9,0.6-6.1,0.9l-4,0.5
	c-2.3,0.3-4.7,0.4-7,0.6l-3.1,0.3c-3.5,0.2-6.8,0.3-10.2,0.3c-3.5,0-6.9-0.1-10.2-0.3l-3.2-0.3c-2.3-0.2-4.7-0.3-6.9-0.6l-4.1-0.5
	c-1.9-0.2-4-0.5-6-0.8l-4.6-0.8c-1.9-0.4-3.7-0.7-5.5-1.1c-0.8-0.2-1.5-0.3-2.3-0.5c-0.9-0.2-1.9-0.4-2.8-0.6
	c-0.7-0.2-1.5-0.3-2.2-0.5c-0.8-0.2-1.6-0.4-2.4-0.6l-5.5-1.6l-0.2,0c-0.6-0.1-1.1-0.3-1.6-0.5c-0.7-0.2-1.3-0.4-2-0.6
	C171.5,417.4,170.8,417.2,170,416.9z M270.3,232.4c-2.4,1.5-5.1,3.1-7.8,4.4l-1.1,0.6c-18.5,8.3-40.5,8.3-58.9,0l-1.1-0.6
	c-2.9-1.4-5.4-2.8-7.6-4.3l-0.1-0.1c-20.1-13.2-32.2-35.3-32.2-59.2c0-38.9,31.6-70.5,70.5-70.5c38.9,0,70.5,31.6,70.5,70.5
	C302.4,197.2,290.4,219.3,270.3,232.4z M337.1,173.4c0-58-47.2-105.1-105.1-105.1s-105.1,47.2-105.1,105.1
	c0,24.7,8.8,48.5,24.5,67.2c-19.9,9.7-38.1,22.9-53.4,38.9c-14.1,14.8-25.8,31.9-34.4,50.4c-17.5-29.7-26.6-63.2-26.6-98
	c0-107.5,87.5-195,195-195c107.5,0,195,87.5,195,195c0,34.7-9.1,68.2-26.5,97.9c-8.6-18.5-20.3-35.6-34.4-50.4
	c-15.3-16-33.6-29.2-53.4-38.9C328.4,221.7,337.1,197.9,337.1,173.4z"/>
</svg>
